<svg width="223" height="275" viewBox="0 0 223 275" fill="none" xmlns="http://www.w3.org/2000/svg">
<path d="M106.213 243.036L222.041 127.181H137.819L64.1147 200.912L106.213 243.036Z" fill="white"/>
<path d="M0.936035 137.726L137.826 0.835938H222.048L43.0602 179.85L0.936035 137.726Z" fill="white"/>
<path d="M137.819 274.614H222.041L148.337 200.91L106.213 243.034L137.819 274.614Z" fill="white"/>
<path d="M148.337 200.91L106.213 243.034L168.687 221.392L148.337 200.91Z" fill="white"/>
<path d="M64.1147 200.887L106.239 158.763L148.363 200.887L106.239 243.037L64.1147 200.887Z" fill="white"/>
<path d="M222.048 127.182L148.344 200.912L222.048 274.643H137.826L64.0959 200.912L137.826 127.182H222.048ZM137.826 0.835938L0.936035 137.726L43.0602 179.85L222.048 0.835938C222.048 0.835938 137.826 0.835938 137.826 0.835938Z" fill="white"/>
</svg>
